<svg id="Layer_1" data-name="Layer 1" xmlns="http://www.w3.org/2000/svg" viewBox="0 0 105.2 77"><defs><style>.cls-1{fill:none;stroke:#000;stroke-miterlimit:10;stroke-width:1.5px;}</style></defs><circle class="cls-1" cx="90.4" cy="62.3" r="14"/><path class="cls-1" d="M269.1,358.9h25.5l15.4,37-27.7,23.6H222.6l-2.1-11.1h4.7s2.2-12.6,10.3-20.5h-6l-2.9-12h42.1L283,404.9l14.3-12.1L287,368.3l-14.4-.4Z" transform="translate(-219.6 -358.2)"/><path class="cls-1" d="M239.2,419.6a14,14,0,1,0,27.9,0" transform="translate(-219.6 -358.2)"/><path class="cls-1" d="M253.5,389.5a21,21,0,0,0-21,21h42A21,21,0,0,0,253.5,389.5Z" transform="translate(-219.6 -358.2)"/></svg>