<svg id="Layer_1" data-name="Layer 1" xmlns="http://www.w3.org/2000/svg" viewBox="0 0 291 264.5"><defs><style>.cls-1{fill:none;stroke:#d52300;stroke-miterlimit:10;stroke-width:5px;}</style></defs><path class="cls-1" d="M221.5,183c98.9,0,119.2,55.5,123.4,78.4a8.1,8.1,0,0,1-8,9.6H108.2a8.2,8.2,0,0,1-8.1-9.6C104.6,235.9,134.2,183,221.5,183Z" transform="translate(-76.5 -180.5)"/><rect class="cls-1" x="2.5" y="154.5" width="286" height="33" rx="16.5"/><path class="cls-1" d="M351.4,288H92.6a3.2,3.2,0,0,0-3.1,2.6c-1.7,8.2-5.7,32.6,6,20.9,14-14,27,0,27,0s15,13,30,0,30,1,30,1,14,12,30,0,30,0,30,0,12,12,26,0,27.1-.8,27.1-.8,16.3,16.8,31.6.3c0,0,11.7-12.6,27,0,8.6,7.1,2.4-14.6.2-21.8A3.1,3.1,0,0,0,351.4,288Z" transform="translate(-76.5 -180.5)"/><path class="cls-1" d="M308.4,389.6v8c0,9.3-7.2,16.9-16,16.9h-6c-8.2,0-14.8-7.1-14.8-15.8v-6.5a8.5,8.5,0,0,0-8.2-8.7h0a9.1,9.1,0,0,0-8.8,9.3v7.8c0,7.4-5.1,13.9-12.1,14.8s-15.3-5.9-15.3-14.4V388a4.4,4.4,0,0,0-4.3-4.5H97.8a1.9,1.9,0,0,0-1.8,1.9v30.7c0,14.5,11.2,26.4,24.9,26.4H323.1c13.7,0,24.9-11.9,24.9-26.4V385.4a1.9,1.9,0,0,0-1.8-1.9h-32A5.9,5.9,0,0,0,308.4,389.6Z" transform="translate(-76.5 -180.5)"/></svg>