<svg id="레이어_1" data-name="레이어 1" xmlns="http://www.w3.org/2000/svg" viewBox="0 0 463.1 510.2"><defs><style>.cls-1{fill:#ff8732;}.cls-2{fill:#d62300;}</style></defs><path class="cls-1" d="M617.6,521.7C579,543.5,512.7,549.8,421,549.8s-158-6.3-196.7-28.1c-23.2-13.1-34.9-30.9-34.9-43.6,0-7.3,3.9-11.5,12.5-11.5H640c8.7,0,12.5,4.2,12.5,11.5C652.5,490.8,640.8,508.6,617.6,521.7ZM640,183.3H201.9c-8.6,0-12.5-4.4-12.5-12.4,0-47.5,71.5-131.4,231.6-131.4s231.5,83.9,231.5,131.4C652.5,178.9,648.7,183.3,640,183.3Z" transform="translate(-189.4 -39.5)"/><path class="cls-2" d="M282.7,379.2a7.7,7.7,0,0,1-1.5-4c0-1.6.9-2.8,2.7-4.4,4.2-3.9,14.4-13.5,20.1-22.3,4.3-6.7,6.1-12.7,6.1-17.8,0-12.9-11.8-23-24.6-23-8.1,0-15.9,4.6-21.1,13.1-6.9,11.2-15.3,24.3-20.6,29.5-1.4,1.3-2.1,1.6-3.1,1.6s-2.6-1.2-2.6-3.1V334c0-14.6-8.6-26.3-24.2-26.3s-24.2,11.7-24.2,26.3v91.4c0,14.5,8.4,26.3,24.2,26.3s24.2-11.7,24.2-26.3V404.3c0-1.8.8-3.1,2.6-3.1s2.9,2.4,3.5,3.6c3.5,8.1,13.4,25.5,22.6,35.7,6.3,6.9,14,11.2,22.2,11.2,13.8,0,25.4-12.1,25.4-25,0-8-3.4-13.9-10-21C296.1,396.6,286.3,384.7,282.7,379.2Z" transform="translate(-189.4 -39.5)"/><path class="cls-2" d="M468.1,299.2c23.3,0,38-14.8,38-36.5,0-13.8-8.3-23.3-24.9-23.3h-4.8c-8.8,0-15.6,4.2-15.6,13.5s7.3,12.4,12.8,12.4c2.8,0,4.6.9,4.6,2.9s-3.1,4.5-6.7,4.5c-11.2,0-18.7-7.9-18.7-22.6,0-16.3,10.4-22.2,18.4-22.2,9.8,0,11.4,5,18.3,5a13.2,13.2,0,0,0,13.2-13.3,14.2,14.2,0,0,0-5.6-11.6c-6.3-4.6-15-8-28.1-8-23.1,0-45.5,15.1-45.5,50.1S445.9,299.2,468.1,299.2Z" transform="translate(-189.4 -39.5)"/><path class="cls-2" d="M206.8,298.3h20.9c19.8,0,31.8-13.2,31.8-29.6,0-13.2-7.8-19.3-9.6-20.8s-1.5-1.2-1.5-1.8.4-1,1.2-1.9a24.2,24.2,0,0,0,5.6-16.1c0-17.8-12-27.3-30.7-27.3H206.8c-11.8,0-17.4,6.9-17.4,16.1v65.4C189.4,291.5,195,298.3,206.8,298.3Zm8.7-71.9c0-2,1.2-3.4,3.8-3.4h1.9c6.4,0,8.3,4.4,8.3,8.3s-1.9,8.6-8.3,8.6h-1.9c-2.6,0-3.8-1.5-3.8-3.4Zm0,34.7c0-1.9,1.2-3.4,3.8-3.4h2.6c7.2,0,9.2,4.7,9.2,9s-2,9.4-9.2,9.4h-2.6c-2.6,0-3.8-1.5-3.8-3.4Z" transform="translate(-189.4 -39.5)"/><path class="cls-2" d="M594.9,299.1c9.5,0,14.7-7.1,14.7-16V267.3c0-1.9.9-2.8,2.3-2.8s2.4,1,2.7,2.8c1.4,7.6,4.9,17.8,8.9,23,5.1,6.7,9.8,8.8,14.6,8.8,7.7,0,14.4-6.1,14.4-13.7,0-5-2.1-8.7-4.7-12.1-5.1-6.4-8.2-10.6-10.1-15.8-.5-1.1-.2-2.2,1.2-3.2,4.6-3.6,9.9-11.5,9.9-23.9,0-18.9-15.6-29.6-34.5-29.6H597.5c-11.7,0-17.4,6.9-17.4,16.1v66.2C580.1,292,585.3,299.1,594.9,299.1Zm13-70.2c0-1.9,1.2-3.4,3.8-3.4h2c6.3,0,8.2,4.4,8.2,8.3s-1.9,8.6-8.2,8.6h-2c-2.6,0-3.8-1.5-3.8-3.4Z" transform="translate(-189.4 -39.5)"/><path class="cls-2" d="M350.5,307.7c-16.6,0-25.7,12.5-25.7,28v87.9c0,15.6,9.1,28.1,25.7,28.1s25.7-12.5,25.7-28.1V335.7C376.2,320.2,367.2,307.7,350.5,307.7Z" transform="translate(-189.4 -39.5)"/><path class="cls-2" d="M614.8,364.8h-7.3c-13.1,0-23.2,6.1-23.2,19.5s11,17.9,19.2,17.9c4,0,6.8,1.2,6.8,4.3s-4.7,6.4-9.8,6.4c-16.8,0-28.2-11.4-28.2-32.6,0-23.6,15.6-32.2,27.6-32.2,14.7,0,17.1,7.4,27.4,7.4A19.8,19.8,0,0,0,647.2,336a20.1,20.1,0,0,0-8.5-16.7c-9.1-6.7-22.7-11.6-42.1-11.6-34.6,0-68.3,21.8-68.3,72.6,0,48.5,33.7,71.2,67,71.2,34.9,0,57.1-21.5,57.1-53C652.4,378.6,639.9,364.8,614.8,364.8Z" transform="translate(-189.4 -39.5)"/><path class="cls-2" d="M558.6,298.3c8.3,0,14.9-4.8,14.9-13.8s-6.6-13.6-14.9-13.6H545.2c-2.5,0-3.7-1.5-3.7-3.4v-2.8c0-2,1.2-3.5,3.7-3.5h10.3c7.1,0,12.8-4.3,12.8-11.8s-5.7-11.9-12.8-11.9H545.2c-2.5,0-3.7-1.5-3.7-3.4v-2.4c0-1.9,1.2-3.4,3.7-3.4h13.4c8.3,0,14.9-4.9,14.9-13.8s-6.6-13.7-14.9-13.7H530.5c-11.7,0-17.4,6.9-17.4,16.1v65.4c0,9.2,5.7,16,17.4,16Z" transform="translate(-189.4 -39.5)"/><path class="cls-2" d="M303.2,299.1c24.1,0,36.9-14.4,36.9-32.5v-50c0-8.9-5.2-16.1-14.7-16.1s-14.7,7.2-14.7,16.1V265c0,3.5-2.1,7.7-7.5,7.7s-7.1-4.2-7.1-7.7V216.6c0-8.9-5.4-16.1-14.9-16.1s-14.7,7.2-14.7,16.1v50C266.5,284.7,279.2,299.1,303.2,299.1Z" transform="translate(-189.4 -39.5)"/><path class="cls-2" d="M407.6,299.1c7.7,0,14.4-6.1,14.4-13.7,0-5-2.1-8.7-4.8-12.1-4.3-5.7-8.1-10.6-10.1-15.8-.4-1.2-.1-2.2,1.2-3.2,4.6-3.6,10-11.5,10-23.9,0-18.9-15.6-29.6-34.5-29.6H367c-11.7,0-17.4,6.9-17.4,16.1v66.2c0,8.9,5.2,16,14.7,16s14.7-7.1,14.7-16V267.3c0-1.9.9-2.8,2.4-2.8s2.4,1.1,2.7,2.8c1.3,7.6,4.9,17.8,8.9,23C398.1,297,402.8,299.1,407.6,299.1Zm-24.4-56.7h-2.1c-2.5,0-3.7-1.5-3.7-3.4V228.9c0-1.9,1.2-3.4,3.7-3.4h2.1c6.2,0,8.2,4.4,8.2,8.3S389.4,242.4,383.2,242.4Z" transform="translate(-189.4 -39.5)"/><path class="cls-2" d="M493,307.7c-15.3,0-23.6,11.4-23.6,25.8v32.1c0,2.6-.9,3.8-2.5,3.8s-2.1-.7-3.1-2.8l-20.7-40.1c-7.9-15.2-16-18.8-25.4-18.8-15.6,0-24.2,11.7-24.2,26.4v91.7c0,14.4,8.3,25.9,23.6,25.9s23.6-11.5,23.6-25.9v-32c0-2.7.9-3.9,2.5-3.9s2.1.8,3.2,2.8L467,432.8c7.9,15.3,16.4,18.9,25.4,18.9,15.7,0,24.3-11.8,24.3-26.4V333.5C516.7,319.1,508.4,307.7,493,307.7Z" transform="translate(-189.4 -39.5)"/></svg>