<?xml version="1.0" encoding="utf-8"?>
<!-- Generator: Adobe Illustrator 23.0.5, SVG Export Plug-In . SVG Version: 6.00 Build 0)  -->
<svg version="1.1" id="Layer_1" xmlns="http://www.w3.org/2000/svg" xmlns:xlink="http://www.w3.org/1999/xlink" x="0px" y="0px"
	 viewBox="0 0 146.2 219.2" style="enable-background:new 0 0 146.2 219.2;" xml:space="preserve">
<style type="text/css">
	.st0{opacity:0.3;}
	.st1{fill:none;stroke:#FFFFFF;stroke-width:3;stroke-miterlimit:10;}
	.st2{fill:none;stroke:#FFFFFF;stroke-miterlimit:10;}
</style>
<g class="st0">
	<path class="st1" d="M120.9,79.2c-2.7,26.1-26,45.1-52.1,42.4c-22.4-2.3-40.1-20-42.4-42.4H3.6l11,126.6l15.9,11.4
		c0,0,15.9-19.9,43.1-20.1h1c27.2,0.2,43.1,20.1,43.1,20.1l15.9-11.4l11-126.6H120.9z"/>
	<path class="st1" d="M83.6,120.2l1-55c0,0,3-6-10-10c0,0-7-1-7,6s0.5,26.6,0.5,26.6"/>
	<path class="st1" d="M43.6,111.2c0,0-7-64-10-74c0,0,10-12,24,14c0,0,7.1,23.7,3.6,35.8"/>
	<path class="st1" d="M98.6,114.2l5-53c-8-8-18.7,1.8-18.7,1.8"/>
	<path class="st1" d="M107.6,107.2c0.7-10.8,2.2-16.5,3-27.3s1.2-21.1,1.6-31.7c0.3-6,0.1-12,0.3-18c0.1-1.9-1.3-3.5-3.2-3.8
		c-5.3-0.6-10.5,1.4-14.1,5.4c-0.6,0.6-1,1.4-1,2.3l-1.4,24.5"/>
	<path class="st1" d="M25.7,79.2l-4.9-9.1c0,0,3.5-7.2,18.2,3.5"/>
	<path class="st1" d="M56.6,118.7l0.2-31c0,0,11.4-3.2,15.1,2.6v30.8"/>
	<path class="st1" d="M52,42.4c-3.6-6.8-3.4-15.2-3.4-15.2c9-6,17,3,17,3l7,25"/>
	<path class="st1" d="M72.6,54.2l3-39c0,0-1-5,9-8s5,20,5,20l-4,35"/>
	<path class="st1" d="M128.8,79.2V38.1c0.1-1.9-1.5-3.5-3.4-3.6c0,0-0.1,0-0.1,0h-3.7c-0.9-0.1-1.8,0.2-2.5,0.7l-2.6,1.8
		c-1.2,0.7-3.9,4.2-3.9,4.2"/>
	<path class="st1" d="M20.8,70.1l-7.2-39.9c0,0,9-9,20,7"/>
	<path class="st1" d="M43.7,35.3l-2.3-9.1c0,0-12.9-15.2-15.3-3.1l2.5,8.2"/>
	<path class="st1" d="M16.8,28.3c0,0-22.2-19.1-13.2,7.9s6,19,6,19"/>
	<path class="st1" d="M13.6,79.2c0,0-23.3-33.4,5.4-19.2"/>
	<path class="st1" d="M90.7,19.6c0,0,23.1-17.1,15.5,6.7"/>
	<path class="st1" d="M74.9,25.1c0,0-6.3-21.9-21.3-16.9c0,0-3.1,2.9,1.5,16.9"/>
	<path class="st1" d="M52.7,10.7L37.6,1.8c-0.9-0.5-2-0.2-2.5,0.6C35.1,2.5,35,2.6,35,2.7c-1.3,3.7-2.7,12,4.7,21.6"/>
	<path class="st1" d="M128,35.9l3.6-4.7c0,0,4.9-4.7,10,4.7l-10,43.3"/>
</g>
<g class="st0">
	<path class="st2" d="M101.3,186.5c-5.1,2.6-13.8,3.3-26,3.3s-20.9-0.7-26-3.3c-3-1.6-4.6-3.7-4.6-5.2s0.5-1.3,1.7-1.3h57.9
		c1.1,0,1.6,0.4,1.6,1.3S104.4,184.9,101.3,186.5 M104.3,146.4H46.4c-1.2,0-1.7-0.5-1.7-1.5c0-5.6,9.5-15.5,30.6-15.5
		s30.7,9.9,30.7,15.5C106,145.9,105.4,146.4,104.3,146.4"/>
	<path class="st2" d="M57.1,169.6c-0.1-0.1-0.2-0.3-0.2-0.5c0-0.2,0.1-0.3,0.3-0.5c1-0.8,1.9-1.7,2.7-2.6c0.4-0.6,0.7-1.3,0.8-2.1
		c-0.2-1.7-1.6-2.9-3.3-2.8c-1.1,0-2.2,0.6-2.8,1.6c-0.8,1.2-1.7,2.4-2.7,3.5l-0.4,0.2c-0.2,0-0.3-0.2-0.3-0.4v-1.8
		c0.1-1.7-1.2-3-2.9-3.1c-0.1,0-0.2,0-0.3,0c-1.7-0.1-3.1,1.1-3.2,2.8c0,0.1,0,0.2,0,0.3v10.9c-0.1,1.7,1.2,3,2.9,3.1
		c0.1,0,0.2,0,0.3,0c1.7,0.1,3.1-1.1,3.2-2.8c0-0.1,0-0.2,0-0.3v-2.5c0-0.2,0.1-0.4,0.3-0.4s0.4,0.3,0.5,0.4c0.8,1.6,1.8,3,3,4.3
		c0.8,0.8,1.8,1.3,2.9,1.3c1.7,0.1,3.2-1.3,3.3-3c-0.1-1-0.5-1.9-1.3-2.5C58.8,171.8,57.9,170.7,57.1,169.6"/>
	<path class="st2" d="M81.6,160.1c3,0,5-1.7,5-4.3s-1.1-2.8-3.3-2.8h-0.6c-1.2,0-2.1,0.5-2.1,1.6c0.1,0.9,0.8,1.6,1.7,1.5
		c0,0,0,0,0,0c0.4,0,0.6,0.1,0.6,0.4S82.5,157,82,157c-1.3,0.1-2.5-1-2.5-2.3c0-0.1,0-0.3,0-0.4c-0.1-1.3,0.9-2.5,2.2-2.6
		c0.1,0,0.2,0,0.3,0c1.3,0,1.5,0.6,2.4,0.6c0.9,0,1.6-0.7,1.7-1.6c0-0.6-0.3-1.1-0.7-1.4c-1.1-0.6-2.4-1-3.7-0.9c-3.1,0-6,1.8-6,5.9
		S78.6,160.1,81.6,160.1"/>
	<path class="st2" d="M47,160h2.8c2.6,0,4.2-1.5,4.2-3.5c0-1-0.5-1.9-1.3-2.4l-0.2-0.3l0.2-0.2c0.4-0.5,0.7-1.2,0.7-1.9
		c0-2.1-1.6-3.2-4.1-3.2H47c-1.5,0-2.3,0.8-2.3,1.9v7.7C44.7,159.2,45.5,160,47,160 M48.2,151.5c0-0.2,0.1-0.4,0.5-0.4h0.2
		c0.9,0,1.1,0.5,1.1,1c0,0.6-0.4,1-1,1c0,0-0.1,0-0.1,0h-0.2c-0.4,0-0.5-0.2-0.5-0.4L48.2,151.5z M48.2,155.6c0-0.2,0.1-0.4,0.5-0.4
		H49c1,0,1.2,0.6,1.2,1.1c0,0.6-0.5,1.1-1.1,1.1c0,0-0.1,0-0.1,0h-0.3c-0.4,0-0.5-0.2-0.5-0.4V155.6z"/>
	<path class="st2" d="M98.3,160.1c1,0.1,1.9-0.6,2-1.6c0-0.1,0-0.2,0-0.3v-1.8c0-0.3,0.1-0.4,0.3-0.4s0.3,0.1,0.3,0.4
		c0.2,1,0.6,1.9,1.2,2.7c0.4,0.6,1.1,1,1.9,1c0.9,0.1,1.8-0.6,1.9-1.5c0,0,0-0.1,0-0.1c0-0.5-0.2-1-0.6-1.4c-0.5-0.6-1-1.2-1.3-1.9
		c-0.1-0.1,0-0.3,0.1-0.4c0.9-0.6,1.5-1.7,1.4-2.8c0-2.3-2.1-3.5-4.6-3.5h-2.2c-1.6,0-2.3,0.8-2.3,1.9v7.8c-0.1,1,0.7,1.8,1.7,1.9
		C98.2,160.1,98.2,160.1,98.3,160.1 M100.1,151.8c0-0.2,0.2-0.4,0.4-0.4h0.3c0.5-0.1,1,0.3,1.1,0.9c0,0,0,0.1,0,0.1c0,0.6-0.4,1-1,1
		c0,0-0.1,0-0.1,0h-0.3c-0.2,0-0.4-0.2-0.4-0.4V151.8z"/>
	<path class="st2" d="M66,161.1c-1.8-0.1-3.3,1.2-3.4,3c0,0.1,0,0.3,0,0.4v10.4c0,1.9,1.5,3.4,3.4,3.4c1.9,0,3.4-1.5,3.4-3.4v-10.4
		c0.1-1.8-1.2-3.3-3-3.4C66.3,161.1,66.1,161.1,66,161.1"/>
	<path class="st2" d="M101,167.9h-1c-1.7,0-3.1,0.7-3.1,2.3s1.5,2.1,2.6,2.1s0.9,0.2,0.9,0.5s-0.7,0.8-1.3,0.8
		c-2.1-0.3-3.6-2.3-3.3-4.4c0.2-1.7,1.5-3,3.2-3.3c1.9,0,2.3,0.9,3.6,0.9c1.3,0.1,2.5-1,2.6-2.3c0-0.8-0.4-1.6-1.1-2
		c-1.7-1-3.6-1.5-5.5-1.4c-4.6,0-9.1,2.6-9.1,8.6s4.5,8.5,8.9,8.5s7.5-2.6,7.5-6.3S104.3,167.9,101,167.9"/>
	<path class="st2" d="M93.5,160c1.1,0,2-0.6,2-1.6s-0.9-1.6-2-1.6h-1.7c-0.4,0-0.5-0.2-0.5-0.4V156c0-0.2,0.1-0.4,0.5-0.4h1.3
		c1,0,1.7-0.5,1.7-1.4s-0.7-1.4-1.7-1.4h-1.3c-0.4,0-0.5-0.2-0.5-0.4v-0.3c0-0.2,0.1-0.4,0.5-0.4h1.7c1.1,0,2-0.6,2-1.6
		s-0.9-1.6-2-1.6h-3.7c-1.5,0-2.3,0.8-2.3,1.9v7.7c0,1.1,0.8,1.9,2.3,1.9L93.5,160z"/>
	<path class="st2" d="M59.8,160.1c3.1,0,4.8-1.7,4.8-3.8v-6c0.1-1-0.7-1.8-1.7-1.9c-0.1,0-0.1,0-0.2,0c-1-0.1-1.9,0.7-2,1.8
		c0,0,0,0.1,0,0.1v5.8c0.1,0.4-0.2,0.8-0.7,0.9c-0.1,0-0.1,0-0.2,0c-0.5,0.1-0.9-0.3-1-0.8c0,0,0-0.1,0-0.1v-5.8
		c0.1-1-0.7-1.8-1.7-1.9c-0.1,0-0.1,0-0.2,0c-1-0.1-1.9,0.7-2,1.8c0,0,0,0.1,0,0.1v6C54.9,158.4,56.6,160.1,59.8,160.1"/>
	<path class="st2" d="M73.6,160.1c1,0.1,1.8-0.6,1.9-1.6c0-0.5-0.3-1.1-0.7-1.4c-0.5-0.6-0.9-1.2-1.3-1.9c-0.1-0.1,0-0.3,0.2-0.4
		c0.9-0.7,1.4-1.7,1.3-2.8c0-2.3-2.1-3.5-4.6-3.5h-2.2c-1.6,0-2.3,0.8-2.3,1.9v7.8c-0.1,1,0.7,1.8,1.7,1.9c0.1,0,0.1,0,0.2,0
		c1,0.1,1.9-0.6,2-1.6c0-0.1,0-0.2,0-0.3v-1.8c0-0.3,0.1-0.4,0.3-0.4s0.3,0.1,0.4,0.4c0.2,1,0.5,1.9,1.1,2.7
		C72.1,159.7,72.8,160.1,73.6,160.1 M70.3,153.4h-0.2c-0.4,0-0.5-0.2-0.5-0.4v-1.2c0-0.2,0.1-0.4,0.5-0.4h0.2c0.9,0,1.1,0.5,1.1,1
		c0,0.6-0.4,1-1,1C70.4,153.4,70.3,153.4,70.3,153.4"/>
	<path class="st2" d="M84.9,161.1c-1.7-0.1-3.1,1.1-3.2,2.8c0,0.1,0,0.2,0,0.3v3.8c0,0.3-0.1,0.4-0.3,0.4s-0.3,0-0.4-0.3l-2.7-4.7
		c-1.1-1.8-2.2-2.3-3.4-2.3c-1.7-0.1-3.1,1.1-3.2,2.8c0,0.1,0,0.3,0,0.4v10.8c0,1.7,1.4,3.1,3.1,3.1s3.1-1.4,3.1-3.1v-3.8
		c0-0.2,0.2-0.4,0.4-0.4c0.2,0,0.3,0.1,0.4,0.3l2.7,4.7c1.1,1.9,2.2,2.3,3.4,2.3c1.7,0.1,3.1-1.1,3.2-2.8c0-0.1,0-0.3,0-0.4v-10.8
		c0.1-1.6-1.1-3-2.7-3.1C85.2,161.1,85,161.1,84.9,161.1"/>
</g>
</svg>
