<svg id="Layer_1" data-name="Layer 1" xmlns="http://www.w3.org/2000/svg" xmlns:xlink="http://www.w3.org/1999/xlink" viewBox="0 0 598.3 844.9"><defs><style>.cls-1,.cls-3,.cls-4{fill:none;stroke:#fff;}.cls-1,.cls-4{stroke-miterlimit:10;}.cls-1,.cls-3{stroke-width:3px;}.cls-2{clip-path:url(#clip-path);}.cls-3{stroke-linecap:round;stroke-linejoin:round;}.cls-4{stroke-width:2px;}</style><clipPath id="clip-path" transform="translate(1.5 1.5)"><rect class="cls-1" width="595.3" height="841.89"/></clipPath></defs><g class="cls-2"><g class="cls-2"><path class="cls-1" d="M141.7,111.5a47.5,47.5,0,0,1-94.4,0H24.5L35.4,238.1l16,11.4s15.9-19.9,43.1-20.1h.9c27.3.2,43.2,20.1,43.2,20.1l15.9-11.4,10.9-126.6H141.7Z" transform="translate(1.5 1.5)"/><path class="cls-1" d="M104.5,152.5l1-55s3-6-10-10c0,0-7-1-7,6s.5,26.6.5,26.6" transform="translate(1.5 1.5)"/><path class="cls-1" d="M64.5,143.5s-7-64-10-74c0,0,10-12,24,14,0,0,7.1,23.7,3.5,35.8" transform="translate(1.5 1.5)"/><path class="cls-1" d="M119.5,146.5l5-53c-8-8-18.7,1.8-18.7,1.8" transform="translate(1.5 1.5)"/><path class="cls-1" d="M128.5,139.5c.7-10.8,2.1-16.5,3-27.3s1.2-21.1,1.6-31.7c.2-6,.1-12,.3-18a3.9,3.9,0,0,0-3.2-3.8,16.2,16.2,0,0,0-14.1,5.4,3.4,3.4,0,0,0-1,2.3l-1.5,24.5" transform="translate(1.5 1.5)"/><path class="cls-1" d="M46.5,111.5l-4.9-9.1s3.6-7.2,18.2,3.5" transform="translate(1.5 1.5)"/><path class="cls-1" d="M77.5,151l.2-31s11.4-3.2,15.1,2.6v30.8" transform="translate(1.5 1.5)"/><path class="cls-1" d="M72.9,74.7c-3.6-6.8-3.4-15.2-3.4-15.2,9-6,17,3,17,3l7,25" transform="translate(1.5 1.5)"/><path class="cls-1" d="M93.5,86.5l3-39s-1-5,9-8,5,20,5,20l-4,35" transform="translate(1.5 1.5)"/><path class="cls-3" d="M149.7,111.5V70.4a3.6,3.6,0,0,0-3.6-3.6h-3.7a3.6,3.6,0,0,0-2.4.7l-2.6,1.8c-1.2.7-3.9,4.2-3.9,4.2" transform="translate(1.5 1.5)"/><path class="cls-1" d="M41.6,102.4,34.5,62.5s9-9,20,7" transform="translate(1.5 1.5)"/><path class="cls-1" d="M64.5,67.6l-2.2-9.1S49.4,43.3,47,55.4l2.4,8.2" transform="translate(1.5 1.5)"/><path class="cls-1" d="M37.6,60.6S15.5,41.5,24.5,68.5s6,19,6,19" transform="translate(1.5 1.5)"/><path class="cls-1" d="M34.5,111.5S11.1,78.1,39.8,92.3" transform="translate(1.5 1.5)"/><path class="cls-3" d="M111.6,51.9s23.1-17.1,15.5,6.8" transform="translate(1.5 1.5)"/><path class="cls-3" d="M95.7,57.4S89.5,35.5,74.5,40.5c0,0-3.1,2.9,1.5,16.9" transform="translate(1.5 1.5)"/><path class="cls-3" d="M73.6,43,58.4,34.1a1.8,1.8,0,0,0-2.6.9c-1.2,3.7-2.6,12,4.7,21.6" transform="translate(1.5 1.5)"/><path class="cls-3" d="M148.9,68.2l3.6-4.7s4.9-4.7,9.9,4.7l-9.9,43.3" transform="translate(1.5 1.5)"/></g><rect class="cls-1" x="1.5" y="1.5" width="595.3" height="841.89"/></g><rect class="cls-1" x="1.5" y="1.5" width="595.3" height="841.89"/><path class="cls-4" d="M122.6,218.8c-5.1,2.6-13.9,3.4-26,3.4s-20.9-.8-26-3.4c-3.1-1.5-4.6-3.6-4.6-5.1s.5-1.4,1.6-1.4h57.9c1.2,0,1.7.5,1.7,1.4s-1.6,3.6-4.6,5.1m2.9-40H67.6a1.4,1.4,0,0,1-1.6-1.5c0-5.6,9.4-15.6,30.6-15.6s30.6,10,30.6,15.6c0,.9-.5,1.5-1.7,1.5" transform="translate(1.5 1.5)"/><path class="cls-4" d="M78.3,202c-.2-.3-.2-.4-.2-.5s.1-.3.4-.5a17,17,0,0,0,2.6-2.7,3.5,3.5,0,0,0,.8-2.1,3,3,0,0,0-3.2-2.7,3.3,3.3,0,0,0-2.8,1.5,15.8,15.8,0,0,1-2.8,3.5c-.1.2-.2.2-.4.2a.3.3,0,0,1-.3-.3v-1.8a3.2,3.2,0,0,0-6.4,0v10.8a3.2,3.2,0,0,0,6.4,0v-2.5a.3.3,0,0,1,.3-.3c.3,0,.4.2.5.4a19.5,19.5,0,0,0,3,4.2,4.1,4.1,0,0,0,2.9,1.3,3.3,3.3,0,0,0,3.4-2.9,3.4,3.4,0,0,0-1.3-2.5L78.3,202" transform="translate(1.5 1.5)"/><path class="cls-4" d="M102.8,192.5c3.1,0,5-1.8,5-4.3s-1.1-2.8-3.3-2.8h-.6c-1.2,0-2.1.5-2.1,1.6a1.6,1.6,0,0,0,1.7,1.5q.6,0,.6.3c0,.3-.4.5-.8.5a2.3,2.3,0,0,1-2.5-2.6,2.4,2.4,0,0,1,2.4-2.7c1.3,0,1.5.6,2.4.6a1.6,1.6,0,0,0,1.8-1.5,1.6,1.6,0,0,0-.8-1.4,5.8,5.8,0,0,0-3.7-1c-3,0-6,1.8-6,6a5.6,5.6,0,0,0,5.9,5.8" transform="translate(1.5 1.5)"/><path class="cls-4" d="M68.3,192.4H71c2.6,0,4.2-1.6,4.2-3.5a3.1,3.1,0,0,0-1.2-2.5c-.1-.1-.2-.1-.2-.2V186a2.6,2.6,0,0,0,.8-1.9c0-2.1-1.6-3.3-4.1-3.3H68.3c-1.6,0-2.3.9-2.3,1.9v7.8c0,1.1.7,1.9,2.3,1.9m1.1-8.5c0-.3.2-.4.5-.4h.3c.8,0,1.1.5,1.1.9a1,1,0,0,1-1.1,1.1h-.3a.5.5,0,0,1-.5-.4Zm0,4.1c0-.3.2-.4.5-.4h.4c.9,0,1.2.5,1.2,1a1.1,1.1,0,0,1-1.2,1.2h-.4a.5.5,0,0,1-.5-.5Z" transform="translate(1.5 1.5)"/><path class="cls-4" d="M119.6,192.5a1.8,1.8,0,0,0,1.9-1.9v-1.9a.3.3,0,0,1,.3-.3c.3,0,.3.1.4.3a6.1,6.1,0,0,0,1.2,2.7,2.4,2.4,0,0,0,1.9,1.1,1.8,1.8,0,0,0,1.9-1.6,2.5,2.5,0,0,0-.6-1.5,6.8,6.8,0,0,1-1.4-1.8c0-.2,0-.3.2-.4a3.6,3.6,0,0,0,1.3-2.9c0-2.2-2.1-3.5-4.6-3.5h-2.2c-1.5,0-2.3.9-2.3,1.9v7.9a1.9,1.9,0,0,0,2,1.9m1.7-8.3c0-.3.2-.4.5-.4h.3c.8,0,1,.5,1,.9a1,1,0,0,1-1,1.1h-.3a.5.5,0,0,1-.5-.4Z" transform="translate(1.5 1.5)"/><path class="cls-4" d="M87.3,193.5a3.2,3.2,0,0,0-3.4,3.3v10.4a3.4,3.4,0,0,0,6.8,0V196.8a3.2,3.2,0,0,0-3.4-3.3" transform="translate(1.5 1.5)"/><path class="cls-4" d="M122.2,200.3h-1c-1.7,0-3,.7-3,2.3a2.3,2.3,0,0,0,2.5,2.1c.5,0,.9.1.9.5s-.6.8-1.3.8-3.7-1.4-3.7-3.9a3.5,3.5,0,0,1,3.6-3.8c2,0,2.3.9,3.7.9a2.5,2.5,0,0,0,2.6-2.3,2.2,2.2,0,0,0-1.1-2,9.9,9.9,0,0,0-5.6-1.4c-4.6,0-9,2.6-9,8.6s4.4,8.4,8.8,8.4,7.6-2.5,7.6-6.3c0-2.3-1.7-3.9-5-3.9" transform="translate(1.5 1.5)"/><path class="cls-4" d="M114.8,192.4c1.1,0,1.9-.6,1.9-1.6a1.7,1.7,0,0,0-1.9-1.7H113c-.3,0-.5-.1-.5-.4v-.3a.5.5,0,0,1,.5-.4h1.4a1.4,1.4,0,1,0,0-2.8H113a.5.5,0,0,1-.5-.4v-.3a.5.5,0,0,1,.5-.4h1.8c1.1,0,1.9-.6,1.9-1.6a1.7,1.7,0,0,0-1.9-1.7h-3.7c-1.6,0-2.3.8-2.3,1.9v7.8c0,1.1.7,1.9,2.3,1.9Z" transform="translate(1.5 1.5)"/><path class="cls-4" d="M81,192.5c3.2,0,4.9-1.7,4.9-3.9v-5.9a1.9,1.9,0,0,0-2-1.9,1.8,1.8,0,0,0-1.9,1.9v5.7a.9.9,0,0,1-1,.9.8.8,0,0,1-.9-.9v-5.7a1.9,1.9,0,0,0-2-1.9,1.8,1.8,0,0,0-1.9,1.9v5.9c0,2.2,1.6,3.9,4.8,3.9" transform="translate(1.5 1.5)"/><path class="cls-4" d="M94.8,192.5a1.8,1.8,0,0,0,1.9-1.6,2.5,2.5,0,0,0-.6-1.5,7.3,7.3,0,0,1-1.4-1.8c0-.2,0-.3.2-.4a3.6,3.6,0,0,0,1.3-2.9c0-2.2-2-3.5-4.5-3.5H89.4c-1.5,0-2.3.9-2.3,1.9v7.9a1.9,1.9,0,0,0,2,1.9,1.8,1.8,0,0,0,1.9-1.9v-1.9a.3.3,0,0,1,.3-.3c.3,0,.4.1.4.3a6.1,6.1,0,0,0,1.2,2.7,2.4,2.4,0,0,0,1.9,1.1m-3.2-6.7h-.3a.5.5,0,0,1-.5-.4v-1.2c0-.3.2-.4.5-.4h.3c.8,0,1.1.5,1.1.9a1,1,0,0,1-1.1,1.1" transform="translate(1.5 1.5)"/><path class="cls-4" d="M106.1,193.5a2.9,2.9,0,0,0-3.1,3.1v3.7c0,.4-.1.5-.4.5l-.4-.3-2.7-4.8a3.5,3.5,0,0,0-3.4-2.2,3,3,0,0,0-3.2,3.1v10.9a2.9,2.9,0,0,0,3.2,3,2.9,2.9,0,0,0,3.1-3v-3.8c0-.3.1-.5.3-.5s.3.1.4.4l2.8,4.7c1,1.8,2.1,2.2,3.3,2.2a2.9,2.9,0,0,0,3.2-3.1V196.6a2.9,2.9,0,0,0-3.1-3.1" transform="translate(1.5 1.5)"/></svg>