<svg id="Layer_1" data-name="Layer 1" xmlns="http://www.w3.org/2000/svg" viewBox="0 0 104.1 104.5"><defs><style>.cls-1,.cls-2{fill:none;stroke:#000;stroke-miterlimit:10;}.cls-1{stroke-width:2px;}.cls-3{fill:#d62300;}</style></defs><path class="cls-1" d="M336.5,382.3H259.2l-12.2,30c0,2.2,2.5,3.9,5.7,3.9s5.7-1.7,5.7-3.9c0,2.2,2.5,3.9,5.7,3.9s5.7-1.7,5.7-3.9c0,2.2,2.6,3.9,5.7,3.9s5.8-1.7,5.8-3.9c0,2.2,2.5,3.9,5.7,3.9s5.7-1.7,5.7-3.9c0,2.2,2.6,3.9,5.7,3.9s5.7-1.7,5.7-3.9c0,2.2,2.6,3.9,5.7,3.9a6.3,6.3,0,0,0,5.4-2.4c.8,1.4,2.9,2.4,5.3,2.4s5.7-1.7,5.7-3.9c0,2.2,2.5,3.9,5.7,3.9s5.7-1.7,5.7-3.9c0,2.2,2.6,3.9,5.7,3.9s5.7-1.7,5.7-3.9Z" transform="translate(-246 -368.2)"/><line class="cls-1" x1="23.9" y1="44.3" x2="32" y2="14.1"/><line class="cls-1" x1="35.3" y1="44.3" x2="42.3" y2="14.1"/><line class="cls-1" x1="91.7" y1="44.3" x2="82.3" y2="14.1"/><line class="cls-1" x1="80.2" y1="44.3" x2="74.4" y2="14.1"/><line class="cls-1" x1="69.2" y1="45.5" x2="66.1" y2="14.1"/><line class="cls-1" x1="46.7" y1="44.3" x2="50.4" y2="14.1"/><line class="cls-1" x1="58.2" y1="44.1" x2="58.2" y2="14.1"/><path class="cls-1" d="M65.7,60.3H87.4a1.4,1.4,0,0,1,1.4,1.4v39.4a0,0,0,0,1,0,0H64.3a0,0,0,0,1,0,0V61.6A1.4,1.4,0,0,1,65.7,60.3Z"/><path class="cls-1" d="M16.3,59.8h29a1.4,1.4,0,0,1,1.4,1.4V83.5a0,0,0,0,1,0,0H14.9a0,0,0,0,1,0,0V61.3A1.4,1.4,0,0,1,16.3,59.8Z"/><rect class="cls-2" x="14.1" y="83.5" width="33.5" height="1.63" rx="0.8"/><rect class="cls-1" x="3.9" y="101.1" width="96.4" height="2.45" rx="1.2"/><polyline class="cls-1" points="5.5 48 5.5 101.1 98.6 101.1 98.6 48"/><path class="cls-1" d="M267.8,451.8V439.9c0-3.9,4.2-7.1,9.4-7.1h0c5.1,0,9.3,3.2,9.3,7.1v11.9" transform="translate(-246 -368.2)"/><circle class="cls-1" cx="85.5" cy="79.9" r="1.6"/><path class="cls-2" d="M258.4,412.6" transform="translate(-246 -368.2)"/><line class="cls-1" x1="12.4" y1="44.3" x2="21.9" y2="14.1"/><path class="cls-1" d="M259.2,382.3h77.3V371.2a2,2,0,0,0-2-2H261.2a2,2,0,0,0-2,2Z" transform="translate(-246 -368.2)"/><path class="cls-3" d="M305.7,375.6h0c0-.1,0-.2.1-.2l.8-.9a1.3,1.3,0,0,0,.3-.7,1,1,0,0,0-1-.9,1.1,1.1,0,0,0-.9.5l-.9,1.2h-.2a.1.1,0,0,1-.1-.1v-.6a1,1,0,0,0-2,0v3.6a1,1,0,1,0,2,0v-.8a.1.1,0,0,1,.1-.1h.2a4.1,4.1,0,0,0,1,1.4,1.2,1.2,0,0,0,.9.5,1.1,1.1,0,0,0,1.1-1,1.2,1.2,0,0,0-.4-.8Z" transform="translate(-246 -368.2)"/><path class="cls-3" d="M290.3,378.6a2,2,0,0,0,2.1-2,1.2,1.2,0,0,0-1.4-1.3h-.3c-.5,0-.9.2-.9.8s.5.6.8.6l.2.2a.4.4,0,0,1-.4.3c-.6,0-1-.5-1-1.3a1.1,1.1,0,0,1,1-1.2c.6,0,.7.2,1,.2a.8.8,0,0,0,.8-.7h0a.7.7,0,0,0-.3-.6,2.5,2.5,0,0,0-1.6-.5,2.5,2.5,0,0,0-2.5,2.8A2.4,2.4,0,0,0,290.3,378.6Z" transform="translate(-246 -368.2)"/><path class="cls-3" d="M275.7,378.6h1.2a1.7,1.7,0,0,0,1.8-1.7,1.4,1.4,0,0,0-.6-1.1h0a1.6,1.6,0,0,0,.3-.9c0-1-.6-1.5-1.7-1.5h-1a.8.8,0,0,0-.9.9v3.6A.8.8,0,0,0,275.7,378.6Zm.5-4a.2.2,0,0,1,.2-.2h.1c.4,0,.5.2.5.5s-.1.4-.5.4h-.1c-.1,0-.2,0-.2-.2Zm0,1.9a.2.2,0,0,1,.2-.2h.2a.5.5,0,0,1,.5.5c0,.3-.1.6-.5.6h-.2a.2.2,0,0,1-.2-.2Z" transform="translate(-246 -368.2)"/><path class="cls-3" d="M297.3,378.6a.8.8,0,0,0,.8-.9v-1a.2.2,0,0,1,.2.2,3.3,3.3,0,0,0,.5,1.2c.3.4.5.5.8.5a.8.8,0,0,0,.8-.7.9.9,0,0,0-.3-.7,9,9,0,0,1-.5-.9c-.1,0,0-.1,0-.2a1.5,1.5,0,0,0,.6-1.3,1.7,1.7,0,0,0-1.9-1.6h-1a.8.8,0,0,0-.9.9v3.6A.8.8,0,0,0,297.3,378.6Zm.7-3.9.2-.2h.1a.5.5,0,0,1,0,1h-.1l-.2-.2Z" transform="translate(-246 -368.2)"/><path class="cls-3" d="M308.6,372.8a1,1,0,0,0-1.1,1.1v3.5a1.1,1.1,0,0,0,2.2,0v-3.5A1,1,0,0,0,308.6,372.8Z" transform="translate(-246 -368.2)"/><path class="cls-3" d="M319.9,375h-.3c-.6,0-1,.3-1,.8a.8.8,0,0,0,.8.7c.2,0,.3.1.3.2a.4.4,0,0,1-.4.3,1.2,1.2,0,0,1-1.2-1.3,1.1,1.1,0,0,1,1.2-1.3c.6,0,.7.3,1.1.3a.9.9,0,0,0,.9-.8,1,1,0,0,0-.4-.7,4,4,0,0,0-1.8-.4,2.9,2.9,0,1,0,0,5.7,2.2,2.2,0,0,0,2.4-2.1C321.5,375.6,321,375,319.9,375Z" transform="translate(-246 -368.2)"/><path class="cls-3" d="M295.3,378.6a.8.8,0,0,0,.8-.8.7.7,0,0,0-.8-.7h-.8a.2.2,0,0,1-.2-.2v-.2a.2.2,0,0,1,.2-.2h.6c.4,0,.7-.2.7-.6a.6.6,0,0,0-.7-.7h-.6a.2.2,0,0,1-.2-.2h0a.2.2,0,0,1,.2-.2h.8a.8.8,0,0,0,.8-.8.7.7,0,0,0-.8-.7h-1.6a.8.8,0,0,0-.9.9v3.6a.8.8,0,0,0,.9.9Z" transform="translate(-246 -368.2)"/><path class="cls-3" d="M281.1,378.6a1.8,1.8,0,0,0,2-1.8V374a.8.8,0,1,0-1.6,0v2.7c0,.2-.1.5-.4.5s-.4-.3-.4-.5V374a.8.8,0,0,0-.8-.9.8.8,0,0,0-.9.9v2.8A1.9,1.9,0,0,0,281.1,378.6Z" transform="translate(-246 -368.2)"/><path class="cls-3" d="M286.9,378.6a.8.8,0,0,0,.8-.7.9.9,0,0,0-.3-.7,4.1,4.1,0,0,1-.5-.9c-.1-.1,0-.1,0-.2a1.5,1.5,0,0,0,.6-1.3,1.7,1.7,0,0,0-1.9-1.6h-1a.8.8,0,0,0-.9.9v3.6a.8.8,0,1,0,1.6,0v-.8c0-.1,0-.2.1-.2l.2.2a3.3,3.3,0,0,0,.5,1.2C286.4,378.5,286.6,378.6,286.9,378.6Zm-1.4-3.1h-.1l-.2-.2v-.6l.2-.2h.1a.5.5,0,0,1,0,1Z" transform="translate(-246 -368.2)"/><path class="cls-3" d="M314.7,372.8a.9.9,0,0,0-1,1v1.3h-.2l-.9-1.6c-.4-.6-.7-.7-1.1-.7a.9.9,0,0,0-1,1v3.7a.9.9,0,0,0,1,1,1,1,0,0,0,1-1v-1.3c0-.1,0-.2.1-.2h.1l.9,1.6a1.2,1.2,0,0,0,1.1.8,1,1,0,0,0,1-1.1v-3.6A.9.9,0,0,0,314.7,372.8Z" transform="translate(-246 -368.2)"/></svg>