<svg id="Layer_1" data-name="Layer 1" xmlns="http://www.w3.org/2000/svg" viewBox="0 0 188.7 139"><defs><style>.cls-1,.cls-3{fill:#ed1c24;}.cls-2{fill:none;stroke:#ed1c24;}.cls-2,.cls-3{stroke-miterlimit:10;stroke-width:1.5px;}.cls-3{stroke:#fff;}.cls-4{fill:#fff;}</style></defs><path class="cls-1" d="M300.1,333.3l-3-1.7,2.9-1.9a.6.6,0,0,0,0-1l-3.1-1.6,2.8-2c.3-.3.3-.9-.1-1l-3.2-1.4,2.6-2.2a.5.5,0,0,0-.2-1l-3.2-1.2,2.5-2.4a.5.5,0,0,0-.3-.9l-3.3-1,2.3-2.5a.6.6,0,0,0-.3-1l-3.4-.7,2.1-2.7a.5.5,0,0,0-.3-.9l-3.4-.5,1.9-2.9c.3-.3,0-.8-.4-.9l-3.5-.2,1.8-3a.7.7,0,0,0-.5-.9h-3.5l1.6-3a.6.6,0,0,0-.6-.9l-3.4.2,1.3-3.1a.6.6,0,0,0-.6-.9l-3.4.5,1.1-3.3c.2-.4-.2-.8-.7-.7l-3.3.6.9-3.3a.6.6,0,0,0-.8-.7l-3.3.9.7-3.4a.6.6,0,0,0-.8-.6l-3.2,1.1.4-3.4a.5.5,0,0,0-.8-.6l-3.1,1.3.2-3.4a.6.6,0,0,0-.9-.6l-3,1.5v-3.4a.5.5,0,0,0-.8-.5l-3,1.7-.3-3.4a.6.6,0,0,0-.9-.4l-2.8,1.9-.5-3.4c-.1-.4-.6-.7-.9-.4l-2.7,2.1-.7-3.3a.6.6,0,0,0-1-.3l-2.6,2.3-.9-3.4c-.1-.4-.6-.5-1-.2l-2.4,2.5-1.1-3.3a.6.6,0,0,0-1-.2l-2.2,2.7-1.4-3.2a.6.6,0,0,0-1-.1l-1.7,2.2-1.3-2.5a.6.6,0,0,0-1-.1l-1.5,2.4-1.4-2.4a.6.6,0,0,0-1,0l-1.8,3-1.9-2.9a.6.6,0,0,0-1,.1l-1.5,3.1-2.1-2.8a.6.6,0,0,0-1,.2l-1.3,3.2-2.3-2.6c-.3-.4-.8-.2-1,.2l-1.1,3.2-2.4-2.4a.6.6,0,0,0-1,.3l-.8,3.3-2.6-2.2a.6.6,0,0,0-1,.3l-.6,3.4-2.8-2.1c-.3-.3-.8,0-.9.4l-.4,3.4-2.9-1.9a.6.6,0,0,0-.9.5l-.2,3.4-3-1.7a.5.5,0,0,0-.8.6v3.4l-3.1-1.5a.5.5,0,0,0-.8.6l.2,3.4-3.2-1.2c-.4-.2-.8.1-.7.6l.5,3.4-3.3-1.1c-.4-.1-.9.3-.8.7l.8,3.4-3.4-.9a.6.6,0,0,0-.7.8l1,3.3-3.4-.6a.5.5,0,0,0-.6.7l1.1,3.3-3.4-.4a.6.6,0,0,0-.6.8l1.4,3.1h-3.4a.6.6,0,0,0-.6.9l1.6,3h-3.4a.6.6,0,0,0-.5.9l1.8,2.9-3.4.3c-.5.1-.7.6-.4.9l1.9,2.8-3.3.6c-.5.1-.7.6-.4.9l2.2,2.7-3.4.8a.5.5,0,0,0-.3.9l2.4,2.5-3.3,1c-.4.2-.6.7-.2,1l2.5,2.4-3.3,1.2a.6.6,0,0,0-.1,1l2.6,2.2-3.1,1.4a.6.6,0,0,0-.1,1l2.8,2-3,1.6a.6.6,0,0,0,0,1l2.9,1.8-2.9,1.8a.7.7,0,0,0,0,1.1l3.1,1.6-2.8,2a.6.6,0,0,0,.1,1l3.1,1.4-2.6,2.2c-.4.3-.3.8.2,1L166,346l-2.5,2.4a.6.6,0,0,0,.2,1l3.3,1-2.3,2.5a.6.6,0,0,0,.3,1l3.4.7-2.2,2.7c-.2.3,0,.9.4.9l3.4.5-2,2.9a.6.6,0,0,0,.5.9l3.4.3-1.8,2.9a.6.6,0,0,0,.5.9H174l-1.5,3.1c-.2.4.1.9.5.8h3.5l-1.4,3.1a.6.6,0,0,0,.6.8l3.4-.4-1.1,3.3a.5.5,0,0,0,.6.7l3.4-.6-.9,3.3a.6.6,0,0,0,.7.7l3.3-.8-.7,3.3a.6.6,0,0,0,.8.7l3.2-1.1-.4,3.4a.5.5,0,0,0,.8.6l3.1-1.2-.2,3.4a.5.5,0,0,0,.8.5l3.1-1.5v3.5a.6.6,0,0,0,.9.5l3-1.7.2,3.4a.6.6,0,0,0,.9.4l2.9-1.9.4,3.4c.1.5.6.7.9.4l2.8-2.1.6,3.4a.6.6,0,0,0,1,.3l2.6-2.2.9,3.3a.5.5,0,0,0,.9.2l2.5-2.4,1.1,3.2a.5.5,0,0,0,1,.2l2.2-2.6,1.4,3.2a.6.6,0,0,0,1,.1l2-2.7,1.6,3.1a.6.6,0,0,0,1,0l1.9-2.8,1.7,2.9a.6.6,0,0,0,1,0l1.7-3,1.9,2.8a.7.7,0,0,0,1.1,0l1.4-3.1,2.2,2.7c.2.3.8.2,1-.2l1.2-3.2,2.3,2.6a.6.6,0,0,0,1-.2l1.1-3.3,2.4,2.4c.4.3.9.2,1-.3l.9-3.3,2.6,2.2a.5.5,0,0,0,.9-.3l.6-3.4,2.8,2a.5.5,0,0,0,.9-.4l.4-3.4,2.9,1.9a.6.6,0,0,0,.9-.5v-3.4l3.1,1.6a.6.6,0,0,0,.8-.5V388l3.2,1.4c.4.2.8-.1.8-.6l-.3-3.4,3.2,1.2c.4.2.8-.2.8-.6l-.6-3.4,3.3,1a.6.6,0,0,0,.8-.7l-.8-3.3,3.3.8c.5.1.9-.3.7-.7l-1-3.3,3.4.5a.6.6,0,0,0,.7-.7l-1.2-3.3,3.4.4c.4,0,.8-.4.6-.8l-1.4-3.2h3.4c.4.1.7-.4.5-.8l-1.6-3,3.4-.2a.6.6,0,0,0,.5-.9l-1.8-2.9,3.4-.3c.5-.1.7-.6.4-.9l-2-2.8,3.4-.6a.5.5,0,0,0,.3-.9l-2.2-2.7,3.4-.8a.6.6,0,0,0,.3-1l-2.4-2.4,3.3-1.1a.6.6,0,0,0,.2-1l-2.5-2.3,3.2-1.2a.6.6,0,0,0,.1-1l-2.6-2.2,3.1-1.4a.6.6,0,0,0,.1-1l-2.9-2,3-1.7A.6.6,0,0,0,300.1,333.3Zm-68.9,63.1a64.3,64.3,0,1,1,64.2-64.2A64.2,64.2,0,0,1,231.2,396.4Z" transform="translate(-137.2 -263)"/><circle class="cls-2" cx="94" cy="69.2" r="60.4"/><rect class="cls-3" x="142.2" y="301" width="178.6" height="62.31" rx="3.8" transform="translate(-228.2 -175.5) rotate(-17.9)"/><path class="cls-4" d="M206.3,343.1,201.1,327c-1.1-3.4-.3-5.6,2.5-6.5h.3c2.8-.9,4.7.4,5.8,3.8l8.1,24.8c.9,2.9-.1,4.9-3.1,5.9l-2.2.7a4.7,4.7,0,0,1-5-1.2l-14.8-15.5,5.1,15.9c1.1,3.4.3,5.6-2.5,6.5H195c-2.8.9-4.7-.4-5.8-3.8l-8-24.8c-1-3,0-5,3-5.9l2.2-.7a4.5,4.5,0,0,1,5,1.2Z" transform="translate(-137.2 -263)"/><path class="cls-4" d="M239.5,331.1l-12.3,4,2.4,7.2,12.6-4.1c3-1,4.9-.3,5.6,2v.2c.7,2.3-.4,3.9-3.4,4.9l-17,5.5c-3,.9-5-.1-6-3.1l-8.2-25.3c-.9-3,.1-5,3.1-5.9l17-5.6c3-.9,4.9-.3,5.6,2v.2c.7,2.3-.4,3.9-3.4,4.9L223,322.1l2,6.1,12.3-4c3-.9,4.8-.3,5.5,1.9v.2C243.6,328.5,242.5,330.1,239.5,331.1Z" transform="translate(-137.2 -263)"/><path class="cls-4" d="M280.1,333.7l-2.9,1q-3.1.9-5.1-2.1l-7-11.2.8,13.2c.1,2.4-.8,4-3,4.7l-2.9.9a4.3,4.3,0,0,1-5.6-2.2l-12-22.8c-1.9-3.7-1.6-6.2,1-7.5s5-.2,6.8,3.4l7.9,15.3-1.3-20c-.1-2,.6-3.2,2.2-3.7s2.9,0,4,1.7l10.6,17-2.6-17c-.6-4,.6-6.3,3.6-6.8s4.5,1.4,5.1,5.5l3.7,25.5C283.7,331.2,282.7,332.9,280.1,333.7Z" transform="translate(-137.2 -263)"/><circle class="cls-4" cx="8.3" cy="71.4" r="3.2"/><circle class="cls-4" cx="165.3" cy="20.5" r="3.2"/><circle class="cls-4" cx="23.5" cy="118.4" r="3.2"/><circle class="cls-4" cx="180.6" cy="67.6" r="3.2"/><path class="cls-1" d="M199.7,306.2l-3.8-.6c-.1-.1-.2,0-.3,0l-2.7,2.8c-.1.2-.5.1-.5-.2l-.6-3.8c0-.1,0-.2-.1-.2l-3.5-1.7a.4.4,0,0,1,0-.6l3.5-1.7c.1,0,.1-.1.1-.2l.6-3.8a.3.3,0,0,1,.5-.2l2.7,2.8h.3l3.8-.7a.3.3,0,0,1,.3.5l-1.8,3.4v.3l1.8,3.3A.3.3,0,0,1,199.7,306.2Z" transform="translate(-137.2 -263)"/><path class="cls-1" d="M222.1,289.5l-3.7-.6h-.3l-2.7,2.8a.3.3,0,0,1-.5-.2l-.6-3.8-.2-.2-3.4-1.7a.4.4,0,0,1,0-.6l3.4-1.7.2-.2.6-3.8a.3.3,0,0,1,.5-.2l2.7,2.8h.3l3.7-.7c.3,0,.5.2.4.5l-1.8,3.4c-.1,0-.1.2,0,.2l1.8,3.4C222.6,289.3,222.4,289.5,222.1,289.5Z" transform="translate(-137.2 -263)"/><path class="cls-1" d="M250.4,289.5l-3.8-.6h-.2l-2.7,2.8c-.2.2-.5.1-.6-.2l-.5-3.8a.2.2,0,0,0-.2-.2l-3.4-1.7a.3.3,0,0,1,0-.6l3.4-1.7a.2.2,0,0,0,.2-.2l.5-3.8c.1-.3.4-.4.6-.2l2.7,2.8h.2l3.8-.7c.3,0,.5.2.3.5l-1.7,3.4c-.1,0-.1.2,0,.2l1.7,3.4C250.9,289.3,250.7,289.5,250.4,289.5Z" transform="translate(-137.2 -263)"/><path class="cls-1" d="M223.4,382.6l-3.7-.6c-.1,0-.3,0-.3.1l-2.7,2.7c-.2.2-.5.1-.5-.1l-.6-3.8-.2-.3-3.4-1.7a.3.3,0,0,1,0-.5l3.4-1.7c.1-.1.2-.2.2-.3l.6-3.8c0-.2.3-.3.5-.1l2.7,2.7c0,.1.1.1.3.1l3.7-.6a.3.3,0,0,1,.4.4l-1.8,3.4a.2.2,0,0,0,0,.3l1.8,3.4A.3.3,0,0,1,223.4,382.6Z" transform="translate(-137.2 -263)"/><path class="cls-1" d="M252.3,381.4l-3.7-.7h-.3l-2.7,2.8c-.2.1-.5,0-.5-.2l-.6-3.8a.2.2,0,0,0-.2-.2l-3.4-1.7c-.2-.2-.2-.5,0-.6l3.4-1.7c.1-.1.2-.1.2-.2l.6-3.8a.3.3,0,0,1,.5-.2l2.7,2.7h.3l3.7-.6a.3.3,0,0,1,.4.4l-1.8,3.4a.2.2,0,0,0,0,.3l1.8,3.4C252.8,381.1,252.6,381.4,252.3,381.4Z" transform="translate(-137.2 -263)"/><path class="cls-1" d="M274.2,365.9l-3.8-.6h-.3l-2.6,2.7a.4.4,0,0,1-.6-.1l-.5-3.8-.2-.3-3.4-1.7c-.3-.1-.3-.4,0-.5l3.4-1.7.2-.3.5-3.8c0-.2.4-.3.5-.1l2.7,2.7h.3l3.8-.6c.2-.1.4.2.3.4l-1.8,3.4v.3l1.8,3.4C274.6,365.7,274.4,366,274.2,365.9Z" transform="translate(-137.2 -263)"/></svg>