<svg id="Layer_1" data-name="Layer 1" xmlns="http://www.w3.org/2000/svg" viewBox="0 0 111 101"><defs><style>.cls-1{fill:none;stroke-width:3px;}.cls-1,.cls-2{stroke:#fff;stroke-miterlimit:10;}</style></defs><path class="cls-1" d="M221.8,263.8c37.4,0,45,20.9,46.6,29.5a3.1,3.1,0,0,1-3,3.7H179a3,3,0,0,1-3-3.6C177.7,283.7,188.8,263.8,221.8,263.8Z" transform="translate(-166.5 -262.3)"/><rect class="cls-1" x="1.5" y="58.9" width="108" height="12.46" rx="6.2"/><path class="cls-1" d="M270.8,303.4H173.1a1.2,1.2,0,0,0-1.1,1c-.7,3.1-2.2,12.3,2.2,7.9s10.2,0,10.2,0,5.7,4.9,11.4,0,11.3.4,11.3.4a9.1,9.1,0,0,0,11.3,0,8.9,8.9,0,0,1,11.3,0,7.2,7.2,0,0,0,9.9,0,7.7,7.7,0,0,1,10.2-.3s6.1,6.3,11.9.1c0,0,4.5-4.8,10.2,0,3.3,2.7.9-5.5.1-8.2A1.2,1.2,0,0,0,270.8,303.4Z" transform="translate(-166.5 -262.3)"/><path class="cls-1" d="M254.6,341.8v3a6.2,6.2,0,0,1-6,6.4h-2.3a5.8,5.8,0,0,1-5.6-6v-2.5a3.1,3.1,0,0,0-3.1-3.2h0a3.4,3.4,0,0,0-3.3,3.5v2.9a5.5,5.5,0,0,1-4.6,5.6,5.2,5.2,0,0,1-5.7-5.4v-4.9a1.7,1.7,0,0,0-1.6-1.7H175.1a.7.7,0,0,0-.7.7v11.6a9.7,9.7,0,0,0,9.4,9.9h76.4a9.7,9.7,0,0,0,9.4-9.9V340.2a.7.7,0,0,0-.7-.7H256.8A2.2,2.2,0,0,0,254.6,341.8Z" transform="translate(-166.5 -262.3)"/><rect class="cls-2" x="190.7" y="281.9" width="1.1" height="2.27" rx="0.6" transform="translate(-259.1 -169.3) rotate(-22.1)"/><rect class="cls-2" x="193.7" y="274.7" width="1.1" height="2.27" rx="0.6" transform="translate(130.8 -307.7) rotate(52.9)"/><rect class="cls-2" x="225.8" y="275.1" width="1.1" height="2.27" rx="0.6" transform="translate(143.9 -333.1) rotate(52.9)"/><rect class="cls-2" x="195.6" y="283" width="1.1" height="2.27" rx="0.6" transform="translate(335.6 -138) rotate(97)"/><rect class="cls-2" x="197.8" y="289.8" width="1.1" height="2.27" rx="0.6" transform="translate(144.5 -305) rotate(52.9)"/><rect class="cls-2" x="219" y="269.8" width="1.1" height="2.27" rx="0.6" transform="translate(137 -329.8) rotate(52.9)"/><rect class="cls-2" x="200.9" y="278.9" width="1.1" height="2.27" rx="0.6" transform="translate(375.8 -35) rotate(116.9)"/><rect class="cls-2" x="202.7" y="273.9" width="1.1" height="2.27" rx="0.6" transform="translate(360.7 122.7) rotate(145.2)"/><rect class="cls-2" x="216" y="281.9" width="1.1" height="2.27" rx="0.6" transform="translate(274.2 -256.2) rotate(76.4)"/><rect class="cls-2" x="207.3" y="282.3" width="1.1" height="2.27" rx="0.6" transform="translate(267.9 -247.5) rotate(76.4)"/><rect class="cls-2" x="208" y="275.1" width="1.1" height="2.27" rx="0.6" transform="translate(368.8 -100.3) rotate(107.8)"/><rect class="cls-2" x="222" y="278.9" width="1.1" height="2.27" rx="0.6" transform="translate(390.6 -108.7) rotate(107.8)"/><rect class="cls-2" x="212.9" y="278.9" width="1.1" height="2.27" rx="0.6" transform="translate(378.8 -100.1) rotate(107.8)"/><rect class="cls-2" x="230.7" y="283.8" width="1.1" height="2.27" rx="0.6" transform="translate(406.7 -110.6) rotate(107.8)"/><rect class="cls-2" x="207.3" y="269.8" width="1.1" height="2.27" rx="0.6" transform="translate(193.5 -297) rotate(63.9)"/><rect class="cls-2" x="212.9" y="272.1" width="1.1" height="2.27" rx="0.6" transform="translate(392.3 42.9) rotate(133.3)"/><rect class="cls-2" x="213.7" y="286" width="1.1" height="2.27" rx="0.6" transform="translate(175.3 -309.9) rotate(57.6)"/><rect class="cls-2" x="220.1" y="283" width="1.1" height="2.27" rx="0.6" transform="translate(74.7 -337.3) rotate(41.1)"/><rect class="cls-2" x="220.1" y="287.9" width="1.1" height="2.27" rx="0.6" transform="translate(-304.2 -35) rotate(-42.9)"/><rect class="cls-2" x="224.6" y="285.7" width="1.1" height="2.27" rx="0.6" transform="translate(-301.4 -32.5) rotate(-42.9)"/><rect class="cls-2" x="200.9" y="282.6" width="1.1" height="2.27" rx="0.6" transform="translate(69.7 -324.7) rotate(41.1)"/><rect class="cls-2" x="200.9" y="287.5" width="1.1" height="2.27" rx="0.6" transform="translate(-309.1 -48.2) rotate(-42.9)"/><rect class="cls-2" x="205.4" y="285.3" width="1.1" height="2.27" rx="0.6" transform="translate(-306.3 -45.7) rotate(-42.9)"/><rect class="cls-2" x="219" y="276.2" width="1.1" height="2.27" rx="0.6" transform="translate(397 -67.3) rotate(114.9)"/><rect class="cls-2" x="247.3" y="271.3" width="1.1" height="2.27" rx="0.6" transform="translate(149.4 -351.8) rotate(52.9)"/><rect class="cls-2" x="233.7" y="287.2" width="1.1" height="2.27" rx="0.6" transform="translate(292.9 -269.4) rotate(76.4)"/><rect class="cls-2" x="244.3" y="283.4" width="1.1" height="2.27" rx="0.6" transform="translate(297.3 -282.6) rotate(76.4)"/><rect class="cls-2" x="235.6" y="283.8" width="1.1" height="2.27" rx="0.6" transform="matrix(0.24, 0.97, -0.97, 0.24, 291.07, -273.86)"/><rect class="cls-2" x="236.3" y="276.6" width="1.1" height="2.27" rx="0.6" transform="translate(407.2 -125.3) rotate(107.8)"/><rect class="cls-2" x="241.3" y="280.4" width="1.1" height="2.27" rx="0.6" transform="matrix(-0.31, 0.95, -0.95, -0.31, 417.22, -125.09)"/><rect class="cls-2" x="235.6" y="271.3" width="1.1" height="2.27" rx="0.6" transform="translate(210.7 -321.6) rotate(63.9)"/><rect class="cls-2" x="241.3" y="273.6" width="1.1" height="2.27" rx="0.6" transform="translate(441.1 24.8) rotate(133.3)"/><rect class="cls-2" x="242" y="287.5" width="1.1" height="2.27" rx="0.6" transform="translate(189.7 -333.1) rotate(57.6)"/><rect class="cls-2" x="248.4" y="284.5" width="1.1" height="2.27" rx="0.6" transform="translate(82.6 -355.5) rotate(41.1)"/><rect class="cls-2" x="248.4" y="289.4" width="1.1" height="2.27" rx="0.6" transform="translate(-297.7 -15.3) rotate(-42.9)"/><rect class="cls-2" x="247.3" y="277.7" width="1.1" height="2.27" rx="0.6" transform="translate(438.7 -90.9) rotate(114.9)"/><rect class="cls-2" x="223.5" y="273.2" width="1.1" height="2.27" rx="0.6" transform="translate(323.4 -222) rotate(87.9)"/><rect class="cls-2" x="230.7" y="274.3" width="1.1" height="2.27" rx="0.6" transform="translate(173.3 -329.7) rotate(57.6)"/><rect class="cls-2" x="235.2" y="280.4" width="1.1" height="2.27" rx="0.6" transform="translate(399.3 -141.7) rotate(104)"/><rect class="cls-2" x="237.9" y="274.3" width="1.1" height="2.27" rx="0.6" transform="translate(372.1 219.6) rotate(165.4)"/><rect class="cls-2" x="226.9" y="280.4" width="1.1" height="2.27" rx="0.6" transform="translate(86.4 380.3) rotate(-145.1)"/><rect class="cls-2" x="254.5" y="283.8" width="1.1" height="2.27" rx="0.6" transform="matrix(-0.31, 0.95, -0.95, -0.31, 437.7, -133.24)"/><rect class="cls-2" x="257.5" y="287.2" width="1.1" height="2.27" rx="0.6" transform="translate(311.1 -292.5) rotate(76.4)"/><rect class="cls-2" x="259.4" y="283.8" width="1.1" height="2.27" rx="0.6" transform="translate(309.3 -297) rotate(76.4)"/><rect class="cls-2" x="259" y="280.4" width="1.1" height="2.27" rx="0.6" transform="translate(428.9 -164.8) rotate(104)"/><rect class="cls-2" x="250.7" y="280.4" width="1.1" height="2.27" rx="0.6" transform="translate(129.7 393.9) rotate(-145.1)"/><rect class="cls-2" x="187.6" y="289.1" width="1.1" height="2.27" rx="0.6" transform="translate(355.5 -62.7) rotate(107.8)"/><rect class="cls-2" x="192.5" y="289.1" width="1.1" height="2.27" rx="0.6" transform="translate(263.3 -228) rotate(76.4)"/><rect class="cls-2" x="192.2" y="285.7" width="1.1" height="2.27" rx="0.6" transform="translate(351 -93.4) rotate(104)"/><rect class="cls-2" x="183.9" y="285.7" width="1.1" height="2.27" rx="0.6" transform="translate(5 365.3) rotate(-145.1)"/></svg>