<?xml version="1.0" encoding="utf-8"?>
<!-- Generator: Adobe Illustrator 23.0.5, SVG Export Plug-In . SVG Version: 6.00 Build 0)  -->
<svg version="1.1" id="Layer_1" xmlns="http://www.w3.org/2000/svg" xmlns:xlink="http://www.w3.org/1999/xlink" x="0px" y="0px"
	 viewBox="0 0 111 101" style="enable-background:new 0 0 111 101;" xml:space="preserve">
<style type="text/css">
	.st0{opacity:0.3;fill:none;stroke:#FFFFFF;stroke-width:3;stroke-miterlimit:10;enable-background:new    ;}
	.st1{opacity:0.3;fill:#FFFFFF;enable-background:new    ;}
</style>
<path class="st0" d="M55.3,1.5c37.4,0,45,20.9,46.6,29.5c0.3,1.7-0.8,3.3-2.4,3.6c-0.2,0-0.4,0.1-0.6,0.1H12.5c-1.7,0-3-1.3-3.1-2.9
	c0-0.2,0-0.4,0.1-0.7C11.2,21.4,22.3,1.5,55.3,1.5z"/>
<path class="st0" d="M7.7,58.9h95.6c3.4,0,6.2,2.8,6.2,6.2v0.1c0,3.4-2.8,6.2-6.2,6.2H7.7c-3.4,0-6.2-2.8-6.2-6.2v-0.1
	C1.5,61.7,4.3,58.9,7.7,58.9z"/>
<path class="st0" d="M104.3,41.1H6.6c-0.6,0-1,0.5-1.1,1C4.8,45.2,3.3,54.4,7.7,50s10.2,0,10.2,0s5.7,4.9,11.4,0s11.3,0.4,11.3,0.4
	c3.3,2.6,8,2.6,11.3,0c3.3-2.7,8-2.7,11.3,0c2.8,2.6,7.1,2.6,9.9,0c2.8-2.7,7.2-2.8,10.2-0.3c0,0,6.1,6.3,11.9,0.1
	c0,0,4.5-4.8,10.2,0c3.3,2.7,0.9-5.5,0.1-8.2C105.4,41.5,104.9,41.1,104.3,41.1z"/>
<path class="st0" d="M88.1,79.5v3c0.1,3.4-2.6,6.3-6,6.4l0,0h-2.3c-3.2-0.1-5.7-2.8-5.6-6l0,0v-2.5c0.1-1.7-1.3-3.1-3-3.2h-0.1l0,0
	c-1.9,0.1-3.4,1.6-3.3,3.5l0,0v2.9c0.1,2.8-1.9,5.2-4.6,5.6c-2.9,0.3-5.4-1.8-5.7-4.7c0-0.2,0-0.5,0-0.7v-4.9c0-0.9-0.7-1.6-1.6-1.7
	H8.6c-0.4,0-0.7,0.3-0.7,0.7l0,0v11.6c-0.1,5.3,4.1,9.7,9.4,9.9h76.4c5.3-0.2,9.5-4.6,9.4-9.9V77.9c0-0.4-0.3-0.7-0.7-0.7l0,0H90.3
	C89.1,77.2,88.1,78.2,88.1,79.5C88.1,79.4,88.1,79.5,88.1,79.5z"/>
<path class="st1" d="M24.2,19.9L24.2,19.9c0.3-0.1,0.6,0,0.7,0.3l0.4,1c0.1,0.3,0,0.6-0.3,0.8l0,0c-0.3,0.1-0.6,0-0.7-0.3l-0.4-1
	C23.7,20.4,23.9,20,24.2,19.9z"/>
<path class="st1" d="M28.9,12.9L28.9,12.9c0.2,0.2,0.1,0.6-0.1,0.8l-0.9,0.6c-0.3,0.2-0.6,0.2-0.8-0.1l0,0c-0.2-0.2-0.1-0.6,0.1-0.8
	l0.9-0.6C28.3,12.7,28.7,12.7,28.9,12.9z"/>
<path class="st1" d="M61,13.4L61,13.4c0.2,0.2,0.1,0.6-0.1,0.8L60,14.8c-0.3,0.2-0.6,0.2-0.8-0.1l0,0c-0.2-0.2-0.1-0.6,0.1-0.8
	l0.9-0.6C60.5,13.1,60.8,13.1,61,13.4z"/>
<path class="st1" d="M30.8,22.2L30.8,22.2c0,0.3-0.3,0.5-0.7,0.5L29,22.6c-0.3,0-0.6-0.3-0.5-0.6l0,0c0-0.3,0.3-0.5,0.7-0.5l1.1,0.1
	C30.6,21.6,30.8,21.9,30.8,22.2z"/>
<path class="st1" d="M33,28L33,28c0.2,0.2,0.1,0.6-0.1,0.8L32,29.5c-0.3,0.2-0.6,0.2-0.8-0.1l0,0c-0.2-0.2-0.1-0.6,0.1-0.8l0.9-0.6
	C32.5,27.7,32.8,27.8,33,28z"/>
<path class="st1" d="M54.2,8.1L54.2,8.1c0.2,0.2,0.1,0.6-0.1,0.8l-0.9,0.6c-0.3,0.2-0.6,0.2-0.8-0.1l0,0c-0.2-0.2-0.1-0.6,0.1-0.8
	L53.4,8C53.7,7.8,54.1,7.8,54.2,8.1z"/>
<path class="st1" d="M35.9,18.5L35.9,18.5c-0.1,0.3-0.5,0.4-0.8,0.2l-1-0.5c-0.3-0.1-0.4-0.5-0.3-0.8l0,0c0.1-0.3,0.5-0.4,0.8-0.2
	l1,0.5C35.9,17.9,36.1,18.2,35.9,18.5z"/>
<path class="st1" d="M37.5,13.8L37.5,13.8c-0.2,0.2-0.6,0.1-0.8-0.2l-0.6-0.9c-0.2-0.3-0.1-0.6,0.1-0.8l0,0c0.2-0.2,0.6-0.1,0.8,0.2
	l0.6,0.9C37.8,13.3,37.7,13.6,37.5,13.8z"/>
<path class="st1" d="M51.1,20.6L51.1,20.6c0.1,0.3-0.1,0.6-0.5,0.7l-1,0.3c-0.3,0.1-0.6-0.1-0.7-0.4l0,0c-0.1-0.3,0.1-0.6,0.5-0.7
	l1-0.3C50.7,20.1,51.1,20.3,51.1,20.6z"/>
<path class="st1" d="M42.4,20.9L42.4,20.9c0.1,0.3-0.1,0.6-0.5,0.7l-1,0.3c-0.3,0.1-0.6-0.1-0.7-0.4l0,0c-0.1-0.3,0.1-0.6,0.5-0.7
	l1-0.3C42,20.4,42.3,20.6,42.4,20.9z"/>
<path class="st1" d="M43.1,14.2L43.1,14.2c-0.1,0.3-0.4,0.4-0.7,0.3l-1-0.3c-0.3-0.1-0.5-0.4-0.4-0.7l0,0c0.1-0.3,0.4-0.4,0.7-0.3
	l1,0.3C43,13.6,43.2,13.9,43.1,14.2z"/>
<path class="st1" d="M57,17.9L57,17.9c-0.1,0.3-0.4,0.4-0.7,0.3l-1-0.3c-0.3-0.1-0.5-0.4-0.4-0.7l0,0c0.1-0.3,0.4-0.4,0.7-0.3l1,0.3
	C56.9,17.3,57.1,17.6,57,17.9z"/>
<path class="st1" d="M48,17.9L48,17.9c-0.1,0.3-0.4,0.4-0.7,0.3l-1-0.3c-0.3-0.1-0.5-0.4-0.4-0.7l0,0c0.1-0.3,0.4-0.4,0.7-0.3l1,0.3
	C47.9,17.3,48.1,17.6,48,17.9z"/>
<path class="st1" d="M65.8,22.8L65.8,22.8c-0.1,0.3-0.4,0.4-0.7,0.3l-1-0.3c-0.3-0.1-0.5-0.4-0.4-0.7l0,0c0.1-0.3,0.4-0.4,0.7-0.3
	l1,0.3C65.7,22.2,65.9,22.5,65.8,22.8z"/>
<path class="st1" d="M42.7,8.4L42.7,8.4c0.1,0.3,0,0.6-0.3,0.8l-1,0.5c-0.3,0.1-0.6,0-0.8-0.2l0,0c-0.1-0.3,0-0.6,0.3-0.8l1-0.5
	C42.2,8,42.5,8.1,42.7,8.4z"/>
<path class="st1" d="M47.9,11.6L47.9,11.6c-0.2,0.2-0.6,0.2-0.8,0l-0.8-0.7c-0.2-0.2-0.3-0.6-0.1-0.8l0,0c0.2-0.2,0.6-0.2,0.8,0
	l0.8,0.7C48.1,11,48.1,11.4,47.9,11.6z"/>
<path class="st1" d="M48.6,24.2L48.6,24.2c0.2,0.3,0.1,0.6-0.2,0.8l-0.9,0.6c-0.3,0.2-0.6,0.1-0.8-0.1l0,0c-0.2-0.3-0.1-0.6,0.2-0.8
	l0.9-0.6C48.1,23.9,48.5,24,48.6,24.2z"/>
<path class="st1" d="M54.9,21L54.9,21c0.2,0.2,0.2,0.6,0,0.8l-0.7,0.8c-0.2,0.2-0.6,0.3-0.8,0.1l0,0c-0.2-0.2-0.2-0.6,0-0.8l0.7-0.8
	C54.3,20.8,54.7,20.8,54.9,21z"/>
<path class="st1" d="M53.4,25.7L53.4,25.7c0.2-0.2,0.6-0.2,0.8,0.1l0.7,0.8c0.2,0.2,0.2,0.6,0,0.8l0,0c-0.2,0.2-0.6,0.2-0.8-0.1
	l-0.7-0.8C53.2,26.3,53.2,25.9,53.4,25.7z"/>
<path class="st1" d="M58,23.5L58,23.5c0.2-0.2,0.6-0.2,0.8,0.1l0.7,0.8c0.2,0.2,0.2,0.6,0,0.8l0,0c-0.2,0.2-0.6,0.2-0.8-0.1L58,24.3
	C57.8,24.1,57.8,23.7,58,23.5z"/>
<path class="st1" d="M35.7,20.7L35.7,20.7c0.2,0.2,0.2,0.6,0,0.8L35,22.3c-0.2,0.2-0.6,0.3-0.8,0.1l0,0c-0.2-0.2-0.2-0.6,0-0.8
	l0.7-0.8C35.1,20.5,35.5,20.5,35.7,20.7z"/>
<path class="st1" d="M34.2,25.3L34.2,25.3c0.2-0.2,0.6-0.2,0.8,0.1l0.7,0.8c0.2,0.2,0.2,0.6,0,0.8l0,0c-0.2,0.2-0.6,0.2-0.8-0.1
	l-0.7-0.8C34,25.8,34,25.5,34.2,25.3z"/>
<path class="st1" d="M38.8,23.1L38.8,23.1c0.2-0.2,0.6-0.2,0.8,0.1l0.7,0.8c0.2,0.2,0.2,0.6,0,0.8l0,0c-0.2,0.2-0.6,0.2-0.8-0.1
	l-0.7-0.8C38.6,23.7,38.6,23.3,38.8,23.1z"/>
<path class="st1" d="M54,15.6L54,15.6c-0.1,0.3-0.5,0.4-0.8,0.2l-1-0.5c-0.3-0.1-0.4-0.5-0.3-0.8l0,0c0.1-0.3,0.5-0.4,0.8-0.2l1,0.5
	C54,14.9,54.2,15.3,54,15.6z"/>
<path class="st1" d="M82.5,9.5L82.5,9.5c0.2,0.2,0.1,0.6-0.1,0.8L81.5,11c-0.3,0.2-0.6,0.2-0.8-0.1l0,0c-0.2-0.2-0.1-0.6,0.1-0.8
	l0.9-0.6C82,9.3,82.3,9.3,82.5,9.5z"/>
<path class="st1" d="M68.8,25.8L68.8,25.8c0.1,0.3-0.1,0.6-0.5,0.7l-1,0.3c-0.3,0.1-0.6-0.1-0.7-0.4l0,0c-0.1-0.3,0.1-0.6,0.5-0.7
	l1-0.3C68.4,25.3,68.8,25.5,68.8,25.8z"/>
<path class="st1" d="M79.4,22L79.4,22c0.1,0.3-0.1,0.6-0.5,0.7l-1,0.3c-0.3,0.1-0.6-0.1-0.7-0.4l0,0c-0.1-0.3,0.1-0.6,0.5-0.7l1-0.3
	C79,21.6,79.3,21.7,79.4,22z"/>
<path class="st1" d="M72.5,23.3L72.5,23.3c0.1,0.3-0.1,0.6-0.5,0.7l-1,0.3c-0.3,0.1-0.6-0.1-0.7-0.4l0,0c-0.1-0.3,0.1-0.6,0.5-0.7
	l1-0.3C72.1,22.8,72.4,23,72.5,23.3z"/>
<path class="st1" d="M71.4,15.7L71.4,15.7C71.3,16,71,16.1,70.7,16l-1-0.3c-0.3-0.1-0.5-0.4-0.4-0.7l0,0c0.1-0.3,0.4-0.4,0.7-0.3
	l1,0.3C71.3,15.1,71.5,15.4,71.4,15.7z"/>
<path class="st1" d="M75.9,17.7L75.9,17.7c-0.1,0.3-0.4,0.4-0.7,0.3l-1-0.3c-0.3-0.1-0.5-0.4-0.4-0.7l0,0c0.1-0.3,0.4-0.4,0.7-0.3
	l1,0.3C75.8,17.1,76,17.5,75.9,17.7z"/>
<path class="st1" d="M71,9.8L71,9.8c0.1,0.3,0,0.6-0.3,0.8l-1,0.5c-0.3,0.1-0.6,0-0.8-0.2l0,0c-0.1-0.3,0-0.6,0.3-0.8l1-0.5
	C70.5,9.4,70.8,9.6,71,9.8z"/>
<path class="st1" d="M76.1,13.2L76.1,13.2c-0.2,0.2-0.6,0.2-0.8,0l-0.8-0.7c-0.2-0.2-0.3-0.6-0.1-0.8l0,0c0.2-0.2,0.6-0.2,0.8,0
	l0.8,0.7C76.3,12.6,76.3,13,76.1,13.2z"/>
<path class="st1" d="M76.9,25.7L76.9,25.7c0.2,0.3,0.1,0.6-0.2,0.8l-0.9,0.6c-0.3,0.2-0.6,0.1-0.8-0.1l0,0c-0.2-0.3-0.1-0.6,0.2-0.8
	l0.9-0.6C76.4,25.4,76.8,25.5,76.9,25.7z"/>
<path class="st1" d="M83.2,22.5L83.2,22.5c0.2,0.2,0.2,0.6,0,0.8l-0.7,0.8c-0.2,0.2-0.6,0.3-0.8,0.1l0,0c-0.2-0.2-0.2-0.6,0-0.8
	l0.7-0.8C82.6,22.4,82.9,22.3,83.2,22.5z"/>
<path class="st1" d="M81.7,27.2L81.7,27.2c0.2-0.2,0.6-0.2,0.8,0.1l0.7,0.8c0.2,0.2,0.2,0.6,0,0.8l0,0c-0.2,0.2-0.6,0.2-0.8-0.1
	L81.7,28C81.4,27.8,81.4,27.4,81.7,27.2z"/>
<path class="st1" d="M82.5,17L82.5,17c-0.1,0.3-0.5,0.4-0.8,0.2l-1-0.5c-0.3-0.1-0.4-0.5-0.3-0.8l0,0c0.1-0.3,0.5-0.4,0.8-0.2l1,0.5
	C82.4,16.4,82.6,16.7,82.5,17z"/>
<path class="st1" d="M58.6,11.9L58.6,11.9c0,0.3-0.2,0.6-0.6,0.6h-1.1c-0.3,0-0.6-0.2-0.6-0.5l0,0c0-0.3,0.2-0.6,0.6-0.6H58
	C58.3,11.4,58.6,11.6,58.6,11.9z"/>
<path class="st1" d="M65.6,12.5L65.6,12.5c0.2,0.3,0.1,0.6-0.2,0.8l-0.9,0.6c-0.3,0.2-0.6,0.1-0.8-0.1l0,0c-0.2-0.3-0.1-0.6,0.2-0.8
	l0.9-0.6C65.1,12.2,65.4,12.3,65.6,12.5z"/>
<path class="st1" d="M70.2,19.2L70.2,19.2c-0.1,0.3-0.4,0.5-0.7,0.4l-1-0.3c-0.3-0.1-0.5-0.4-0.4-0.7l0,0c0.1-0.3,0.4-0.5,0.7-0.4
	l1,0.3C70.1,18.6,70.3,18.9,70.2,19.2z"/>
<path class="st1" d="M72.2,14.3L72.2,14.3c-0.3,0.1-0.6-0.1-0.7-0.4l-0.3-1c-0.1-0.3,0.1-0.6,0.4-0.7l0,0c0.3-0.1,0.6,0.1,0.7,0.4
	l0.3,1C72.7,13.9,72.5,14.2,72.2,14.3z"/>
<path class="st1" d="M60.3,20.2L60.3,20.2C60,20,60,19.7,60.2,19.4l0.6-0.9c0.2-0.3,0.5-0.4,0.8-0.2l0,0c0.2,0.2,0.3,0.5,0.1,0.8
	L61.1,20C60.9,20.3,60.5,20.4,60.3,20.2z"/>
<path class="st1" d="M89,21.1L89,21.1c-0.1,0.3-0.4,0.4-0.7,0.3l-1-0.3c-0.3-0.1-0.5-0.4-0.4-0.7l0,0c0.1-0.3,0.4-0.4,0.7-0.3l1,0.3
	C88.9,20.5,89.1,20.8,89,21.1z"/>
<path class="st1" d="M92.6,25.8L92.6,25.8c0.1,0.3-0.1,0.6-0.5,0.7l-1,0.3c-0.3,0.1-0.6-0.1-0.7-0.4l0,0c-0.1-0.3,0.1-0.6,0.5-0.7
	l1-0.3C92.2,25.4,92.6,25.6,92.6,25.8z"/>
<path class="st1" d="M94.6,22.4L94.6,22.4c0.1,0.3-0.1,0.6-0.5,0.7l-1,0.3c-0.3,0.1-0.6-0.1-0.7-0.4l0,0c-0.1-0.3,0.1-0.6,0.5-0.7
	l1-0.3C94.2,21.9,94.5,22.1,94.6,22.4z"/>
<path class="st1" d="M94,19.2L94,19.2c-0.1,0.3-0.4,0.5-0.7,0.4l-1-0.3c-0.3-0.1-0.5-0.4-0.4-0.7l0,0c0.1-0.3,0.4-0.5,0.7-0.4l1,0.3
	C93.9,18.6,94.1,18.9,94,19.2z"/>
<path class="st1" d="M84.1,20.2L84.1,20.2c-0.2-0.2-0.3-0.5-0.1-0.8l0.6-0.9c0.2-0.3,0.5-0.4,0.8-0.2l0,0c0.2,0.2,0.3,0.5,0.1,0.8
	L84.9,20C84.7,20.3,84.3,20.4,84.1,20.2z"/>
<path class="st1" d="M22.7,28.1L22.7,28.1c-0.1,0.3-0.4,0.4-0.7,0.3l-1-0.3c-0.3-0.1-0.5-0.4-0.4-0.7l0,0c0.1-0.3,0.4-0.4,0.7-0.3
	l1,0.3C22.6,27.5,22.8,27.8,22.7,28.1z"/>
<path class="st1" d="M27.7,27.6L27.7,27.6c0.1,0.3-0.1,0.6-0.5,0.7l-1,0.3c-0.3,0.1-0.6-0.1-0.7-0.4l0,0c-0.1-0.3,0.1-0.6,0.5-0.7
	l1-0.3C27.3,27.1,27.6,27.3,27.7,27.6z"/>
<path class="st1" d="M27.2,24.5L27.2,24.5c-0.1,0.3-0.4,0.5-0.7,0.4l-1-0.3c-0.3-0.1-0.5-0.4-0.4-0.7l0,0c0.1-0.3,0.4-0.5,0.7-0.4
	l1,0.3C27,23.9,27.2,24.2,27.2,24.5z"/>
<path class="st1" d="M17.2,25.5L17.2,25.5c-0.2-0.2-0.3-0.5-0.1-0.8l0.6-0.9c0.2-0.3,0.5-0.4,0.8-0.2l0,0c0.2,0.2,0.3,0.5,0.1,0.8
	L18,25.3C17.8,25.5,17.4,25.6,17.2,25.5z"/>
</svg>
