<svg id="Layer_1" data-name="Layer 1" xmlns="http://www.w3.org/2000/svg" viewBox="0 0 113 103"><defs><style>.cls-1{fill:none;stroke:#000;stroke-miterlimit:10;stroke-width:5px;}</style></defs><path class="cls-1" d="M221.8,263.8c37.4,0,45,20.9,46.6,29.5a3.1,3.1,0,0,1-3,3.7H179a3,3,0,0,1-3-3.6C177.7,283.7,188.8,263.8,221.8,263.8Z" transform="translate(-165.5 -261.3)"/><rect class="cls-1" x="2.5" y="59.9" width="108" height="12.46" rx="6.2"/><path class="cls-1" d="M270.8,303.4H173.1a1.2,1.2,0,0,0-1.1,1c-.7,3.1-2.2,12.3,2.2,7.9s10.2,0,10.2,0,5.7,4.9,11.4,0,11.3.4,11.3.4a9.1,9.1,0,0,0,11.3,0,8.9,8.9,0,0,1,11.3,0,7.2,7.2,0,0,0,9.9,0,7.7,7.7,0,0,1,10.2-.3s6.1,6.3,11.9.1c0,0,4.5-4.8,10.2,0,3.3,2.7.9-5.5.1-8.2A1.2,1.2,0,0,0,270.8,303.4Z" transform="translate(-165.5 -261.3)"/><path class="cls-1" d="M254.6,341.8v3a6.2,6.2,0,0,1-6,6.4h-2.3a5.8,5.8,0,0,1-5.6-6v-2.5a3.1,3.1,0,0,0-3.1-3.2h0a3.4,3.4,0,0,0-3.3,3.5v2.9a5.5,5.5,0,0,1-4.6,5.6,5.2,5.2,0,0,1-5.7-5.4v-4.9a1.7,1.7,0,0,0-1.6-1.7H175.1a.7.7,0,0,0-.7.7v11.6a9.7,9.7,0,0,0,9.4,9.9h76.4a9.7,9.7,0,0,0,9.4-9.9V340.2a.7.7,0,0,0-.7-.7H256.8A2.2,2.2,0,0,0,254.6,341.8Z" transform="translate(-165.5 -261.3)"/><rect x="190.7" y="281.9" width="1.1" height="2.27" rx="0.6" transform="translate(-258.1 -168.3) rotate(-22.1)"/><rect x="193.7" y="274.7" width="1.1" height="2.27" rx="0.6" transform="translate(131.8 -306.7) rotate(52.9)"/><rect x="225.8" y="275.1" width="1.1" height="2.27" rx="0.6" transform="translate(144.9 -332.1) rotate(52.9)"/><rect x="195.6" y="283" width="1.1" height="2.27" rx="0.6" transform="translate(336.6 -137) rotate(97)"/><rect x="197.8" y="289.8" width="1.1" height="2.27" rx="0.6" transform="translate(145.5 -304) rotate(52.9)"/><rect x="219" y="269.8" width="1.1" height="2.27" rx="0.6" transform="translate(138 -328.8) rotate(52.9)"/><rect x="200.9" y="278.9" width="1.1" height="2.27" rx="0.6" transform="translate(376.8 -34) rotate(116.9)"/><rect x="202.7" y="273.9" width="1.1" height="2.27" rx="0.6" transform="translate(361.7 123.7) rotate(145.2)"/><rect x="216" y="281.9" width="1.1" height="2.27" rx="0.6" transform="translate(275.2 -255.2) rotate(76.4)"/><rect x="207.3" y="282.3" width="1.1" height="2.27" rx="0.6" transform="translate(268.9 -246.5) rotate(76.4)"/><rect x="208" y="275.1" width="1.1" height="2.27" rx="0.6" transform="translate(369.8 -99.3) rotate(107.8)"/><rect x="222" y="278.9" width="1.1" height="2.27" rx="0.6" transform="translate(391.6 -107.7) rotate(107.8)"/><rect x="212.9" y="278.9" width="1.1" height="2.27" rx="0.6" transform="translate(379.8 -99.1) rotate(107.8)"/><rect x="230.7" y="283.8" width="1.1" height="2.27" rx="0.6" transform="translate(407.7 -109.6) rotate(107.8)"/><rect x="207.3" y="269.8" width="1.1" height="2.27" rx="0.6" transform="translate(194.5 -296) rotate(63.9)"/><rect x="212.9" y="272.1" width="1.1" height="2.27" rx="0.6" transform="translate(393.3 43.9) rotate(133.3)"/><rect x="213.7" y="286" width="1.1" height="2.27" rx="0.6" transform="translate(176.3 -308.9) rotate(57.6)"/><rect x="220.1" y="283" width="1.1" height="2.27" rx="0.6" transform="translate(75.7 -336.3) rotate(41.1)"/><rect x="220.1" y="287.9" width="1.1" height="2.27" rx="0.6" transform="translate(-303.2 -34) rotate(-42.9)"/><rect x="224.6" y="285.7" width="1.1" height="2.27" rx="0.6" transform="translate(-300.4 -31.5) rotate(-42.9)"/><rect x="200.9" y="282.6" width="1.1" height="2.27" rx="0.6" transform="translate(70.7 -323.7) rotate(41.1)"/><rect x="200.9" y="287.5" width="1.1" height="2.27" rx="0.6" transform="translate(-308.1 -47.2) rotate(-42.9)"/><rect x="205.4" y="285.3" width="1.1" height="2.27" rx="0.6" transform="translate(-305.3 -44.7) rotate(-42.9)"/><rect x="219" y="276.2" width="1.1" height="2.27" rx="0.6" transform="translate(398 -66.3) rotate(114.9)"/><rect x="247.3" y="271.3" width="1.1" height="2.27" rx="0.6" transform="translate(150.4 -350.8) rotate(52.9)"/><rect x="233.7" y="287.2" width="1.1" height="2.27" rx="0.6" transform="translate(293.9 -268.4) rotate(76.4)"/><rect x="244.3" y="283.4" width="1.1" height="2.27" rx="0.6" transform="translate(298.3 -281.6) rotate(76.4)"/><rect x="235.6" y="283.8" width="1.1" height="2.27" rx="0.6" transform="translate(292.1 -272.9) rotate(76.4)"/><rect x="236.3" y="276.6" width="1.1" height="2.27" rx="0.6" transform="translate(408.2 -124.3) rotate(107.8)"/><rect x="241.3" y="280.4" width="1.1" height="2.27" rx="0.6" transform="translate(418.2 -124.1) rotate(107.8)"/><rect x="235.6" y="271.3" width="1.1" height="2.27" rx="0.6" transform="translate(211.7 -320.6) rotate(63.9)"/><rect x="241.3" y="273.6" width="1.1" height="2.27" rx="0.6" transform="translate(442.1 25.8) rotate(133.3)"/><rect x="242" y="287.5" width="1.1" height="2.27" rx="0.6" transform="translate(190.7 -332.1) rotate(57.6)"/><rect x="248.4" y="284.5" width="1.1" height="2.27" rx="0.6" transform="translate(83.6 -354.5) rotate(41.1)"/><rect x="248.4" y="289.4" width="1.1" height="2.27" rx="0.6" transform="translate(-296.7 -14.3) rotate(-42.9)"/><rect x="247.3" y="277.7" width="1.1" height="2.27" rx="0.6" transform="matrix(-0.42, 0.91, -0.91, -0.42, 439.65, -89.85)"/><rect x="223.5" y="273.2" width="1.1" height="2.27" rx="0.6" transform="translate(324.4 -221) rotate(87.9)"/><rect x="230.7" y="274.3" width="1.1" height="2.27" rx="0.6" transform="translate(174.3 -328.7) rotate(57.6)"/><rect x="235.2" y="280.4" width="1.1" height="2.27" rx="0.6" transform="translate(400.3 -140.7) rotate(104)"/><rect x="237.9" y="274.3" width="1.1" height="2.27" rx="0.6" transform="translate(373.1 220.6) rotate(165.4)"/><rect x="226.9" y="280.4" width="1.1" height="2.27" rx="0.6" transform="translate(87.4 381.3) rotate(-145.1)"/><rect x="254.5" y="283.8" width="1.1" height="2.27" rx="0.6" transform="translate(438.7 -132.2) rotate(107.8)"/><rect x="257.5" y="287.2" width="1.1" height="2.27" rx="0.6" transform="translate(312.1 -291.5) rotate(76.4)"/><rect x="259.4" y="283.8" width="1.1" height="2.27" rx="0.6" transform="translate(310.3 -296) rotate(76.4)"/><rect x="259" y="280.4" width="1.1" height="2.27" rx="0.6" transform="translate(429.9 -163.8) rotate(104)"/><rect x="250.7" y="280.4" width="1.1" height="2.27" rx="0.6" transform="translate(130.7 394.9) rotate(-145.1)"/><rect x="187.6" y="289.1" width="1.1" height="2.27" rx="0.6" transform="translate(356.5 -61.7) rotate(107.8)"/><rect x="192.5" y="289.1" width="1.1" height="2.27" rx="0.6" transform="translate(264.3 -227) rotate(76.4)"/><rect x="192.2" y="285.7" width="1.1" height="2.27" rx="0.6" transform="translate(352 -92.4) rotate(104)"/><rect x="183.9" y="285.7" width="1.1" height="2.27" rx="0.6" transform="translate(6 366.3) rotate(-145.1)"/></svg>